<svg xmlns="http://www.w3.org/2000/svg" viewBox="0 0 100 100">
  <rect width="100" height="100" rx="12" fill="#E76F00"/>
  <path fill="white" d="M38 62 Q30 55 35 48 Q42 55 50 50 Q58 45 65 52 Q60 62 50 65 Q40 68 38 62 Z"/>
  <path fill="white" d="M42 20 Q48 32 44 40 Q40 48 44 56 Q40 50 36 44 Q32 36 38 28 Z"/>
  <path fill="white" d="M50 20 Q56 32 52 40 Q48 48 52 56 Q48 50 44 44 Q40 36 46 28 Z"/>
  <path fill="white" d="M30 72 Q50 68 70 72 Q70 76 60 77 L40 77 Q30 76 30 72 Z"/>
  <path fill="white" d="M34 80 Q50 77 66 80 Q62 86 50 86 Q38 86 34 80 Z"/>
</svg>
