<svg xmlns="http://www.w3.org/2000/svg" viewBox="0 0 100 100">
  <rect width="100" height="100" rx="12" fill="#00979D"/>
  <path fill="white" d="M25 42 Q15 42 15 50 Q15 58 25 58 L35 58 Q40 58 43 54 L57 54 Q60 58 65 58 L75 58 Q85 58 85 50 Q85 42 75 42 L65 42 Q60 42 57 46 L43 46 Q40 42 35 42 Z"/>
  <rect x="28" y="47" width="10" height="6" rx="2" fill="#00979D"/>
  <rect x="62" y="44" width="16" height="5" rx="1" fill="#00979D"/>
  <rect x="62" y="51" width="16" height="5" rx="1" fill="#00979D"/>
</svg>
