<svg xmlns="http://www.w3.org/2000/svg" viewBox="0 0 100 100">
  <rect width="100" height="100" rx="12" fill="#2496ED"/>
  <g fill="white">
    <rect x="13" y="45" width="12" height="11" rx="2"/>
    <rect x="27" y="45" width="12" height="11" rx="2"/>
    <rect x="41" y="45" width="12" height="11" rx="2"/>
    <rect x="55" y="45" width="12" height="11" rx="2"/>
    <rect x="27" y="32" width="12" height="11" rx="2"/>
    <rect x="41" y="32" width="12" height="11" rx="2"/>
    <rect x="41" y="19" width="12" height="11" rx="2"/>
  </g>
  <path fill="white" d="M82 48 Q88 44 88 52 Q88 65 75 68 L20 68 Q10 68 10 58 Q10 55 13 53 Q12 44 20 44 Q22 38 30 40"/>
</svg>
