<svg xmlns="http://www.w3.org/2000/svg" viewBox="0 0 100 100">
  <rect width="100" height="100" rx="12" fill="#1a1a2e"/>
  <path fill="white" d="M50 10 C27 10 8 29 8 52 C8 70 20 86 37 92 C39 92.4 40 91.3 40 90.3 L40 83.5 C28.7 86 26.3 78 26.3 78 C24.4 73.2 21.7 71.9 21.7 71.9 C18 69.3 22 69.4 22 69.4 C26 69.7 28.1 73.5 28.1 73.5 C31.8 79.9 37.7 78 40.2 77 C40.6 74.3 41.7 72.4 43 71.3 C33.7 70.2 24 66.6 24 51.3 C24 46.7 25.6 43 28.2 40 C27.8 39 26.3 34.7 28.6 29 C28.6 29 32.1 27.9 40 33.2 C43.3 32.3 46.7 31.8 50 31.8 C53.3 31.8 56.7 32.3 60 33.2 C67.9 27.9 71.4 29 71.4 29 C73.7 34.7 72.2 39 71.8 40 C74.4 43 76 46.7 76 51.3 C76 66.7 66.3 70.2 57 71.3 C58.5 72.6 60 75.2 60 79.2 L60 90.3 C60 91.3 61 92.5 63.1 92 C80 86 92 70 92 52 C92 29 73 10 50 10 Z"/>
</svg>
