<svg xmlns="http://www.w3.org/2000/svg" viewBox="0 0 100 100">
  <rect width="100" height="100" rx="12" fill="#FCC624"/>
  <path fill="#1a1a1a" d="M50 10 C42 10 36 16 36 24 L36 50 C30 52 22 60 22 70 C22 80 30 88 42 90 L58 90 C70 88 78 80 78 70 C78 60 70 52 64 50 L64 24 C64 16 58 10 50 10 Z"/>
  <circle cx="42" cy="42" r="5" fill="#FCC624"/>
  <circle cx="58" cy="42" r="5" fill="#FCC624"/>
  <path fill="#FCC624" d="M40 60 Q50 68 60 60" stroke="#FCC624" stroke-width="2" fill="none"/>
  <circle cx="36" cy="68" r="5" fill="white"/>
  <circle cx="64" cy="68" r="5" fill="white"/>
</svg>
